# xmcd
#
# Track frame offsets: 
#        150
#        15222
#        30600
#        49887
#        71715
#        90827
#        109142
#        128985
#        143610
#        158320
#        177905
#
# Disc length: 2585 seconds
#
# Revision: 0
# Processed by: cddbd v1.5.2PL0 Copyright (c) Steve Scherf et al.
# Submitted via: ExactAudioCopy v0.99pb5
#
DISCID=7e0a170b
DTITLE=4 P.M. (For Positive Music) - For Positive Music
DYEAR=2000
DGENRE=R&B
TTITLE0=Anyway You Wannit
TTITLE1=Where Are Thge Words?
TTITLE2=What We Are Sayin'
TTITLE3=Breakin' My Heart
TTITLE4=Querida (feat. Imprimis)
TTITLE5=I'll Be There
TTITLE6=Wastin' Time (feat. LoCa$h)
TTITLE7=Suddenly I
TTITLE8=Eye-N-Me
TTITLE9=Honeymoon
TTITLE10=Querida (My Love) (In The Club Mix)
EXTD=
EXTT0=
EXTT1=
EXTT2=
EXTT3=
EXTT4=
EXTT5=
EXTT6=
EXTT7=
EXTT8=
EXTT9=
EXTT10=
PLAYORDER=
